<?xml version="1.0" standalone="no"?>
<!DOCTYPE svg PUBLIC "-//W3C//DTD SVG 20010904//EN"
 "http://www.w3.org/TR/2001/REC-SVG-20010904/DTD/svg10.dtd">
<svg version="1.0" xmlns="http://www.w3.org/2000/svg"
 width="1180.000000pt" height="389.000000pt" viewBox="0 0 1180.000000 389.000000"
 preserveAspectRatio="xMidYMid meet">

<g transform="translate(0.000000,389.000000) scale(0.100000,-0.100000)"
fill="#080810" stroke="none">
<path d="M2070 3647 c-74 -40 -256 -139 -405 -219 -307 -165 -872 -469 -1018
-547 -179 -96 -242 -136 -245 -158 -3 -23 52 -58 443 -278 116 -65 242 -137
280 -160 39 -23 120 -71 180 -105 61 -35 279 -163 486 -286 207 -122 393 -228
412 -235 62 -22 -11 -62 932 511 193 116 463 277 600 357 138 80 265 156 283
170 36 27 41 52 15 75 -26 21 -170 101 -413 228 -118 62 -305 161 -415 220
-179 96 -681 362 -873 462 -40 21 -85 38 -100 38 -15 0 -88 -33 -162 -73z"/>
<path d="M3831 3589 c-124 -14 -297 -54 -453 -106 -193 -64 -200 -71 -105
-120 58 -29 59 -29 246 22 243 67 549 91 672 53 70 -22 141 -83 164 -140 22
-56 22 -160 0 -229 -47 -144 -170 -349 -337 -559 -373 -468 -1259 -1249 -1876
-1655 -444 -291 -902 -495 -1273 -566 -90 -17 -138 -20 -238 -17 -112 4 -132
7 -183 32 -117 56 -164 149 -161 321 4 275 157 609 501 1089 85 119 85 119 90
191 5 81 -6 99 -40 68 -42 -37 -282 -366 -364 -500 -160 -259 -270 -511 -310
-712 -12 -60 -15 -116 -12 -195 4 -98 8 -119 34 -176 58 -123 155 -206 289
-246 108 -33 309 -24 505 22 280 67 647 225 1037 448 l148 84 120 0 c351 0
715 139 918 353 137 142 168 229 168 466 l1 153 51 47 c28 27 92 86 142 132
49 46 145 140 212 210 96 98 125 123 132 112 5 -8 7 -71 4 -145 l-6 -131 -41
-58 -41 -58 -3 -387 c-1 -213 0 -397 3 -409 8 -33 62 -46 176 -41 77 3 103 8
116 21 16 16 18 51 21 387 2 230 -1 385 -7 408 -6 21 -29 62 -51 92 l-40 54 0
217 0 217 42 54 c324 409 447 664 418 868 -23 164 -128 273 -302 315 -81 20
-260 26 -367 14z"/>
<path d="M8397 3223 c-4 -3 -7 -97 -7 -208 0 -111 -3 -205 -7 -208 -3 -4 -28
14 -55 39 -74 69 -125 89 -233 89 -49 0 -109 -6 -132 -13 -102 -31 -205 -140
-242 -257 -78 -247 15 -510 212 -601 55 -26 73 -29 157 -29 83 0 101 4 145 27
28 14 68 45 90 67 54 57 65 54 65 -18 0 -44 4 -60 16 -65 28 -11 130 -6 142 6
17 17 17 1149 0 1166 -13 13 -140 17 -151 5z m-145 -481 c185 -104 182 -427
-4 -523 -50 -26 -141 -34 -198 -19 -68 18 -143 97 -165 174 -37 127 0 291 80
352 81 61 196 68 287 16z"/>
<path d="M5453 3189 c-85 -27 -141 -72 -178 -144 -27 -52 -30 -68 -30 -150 0
-82 3 -97 30 -150 49 -96 127 -145 336 -210 104 -32 150 -61 174 -111 22 -47
17 -133 -11 -172 -45 -61 -145 -87 -239 -61 -42 12 -95 61 -130 119 -33 57
-148 68 -161 16 -7 -27 26 -124 56 -167 109 -152 420 -173 573 -39 64 57 90
123 91 230 0 68 -5 96 -23 138 -39 86 -92 123 -278 193 -211 79 -244 107 -251
207 -5 71 22 116 88 150 107 53 232 8 292 -106 17 -32 18 -32 93 -32 89 0 95
6 70 79 -61 183 -287 278 -502 210z"/>
<path d="M6245 3136 c-15 -11 -19 -31 -24 -112 l-6 -99 -47 -3 c-46 -3 -47 -4
-53 -40 -3 -20 -8 -46 -10 -57 -7 -35 10 -48 62 -49 l48 -1 5 -285 c5 -263 7
-289 26 -331 39 -83 109 -119 233 -119 88 0 101 8 101 62 0 52 -24 73 -90 81
-39 5 -61 14 -80 32 l-25 25 -1 260 c-2 225 0 261 13 269 9 5 24 6 34 4 11 -3
48 -2 84 2 l66 7 -3 66 -3 67 -92 3 c-51 1 -93 6 -93 10 -1 4 -2 51 -4 106 -3
69 -8 101 -17 107 -22 14 -103 10 -124 -5z"/>
<path d="M10810 3140 c-11 -7 -16 -36 -20 -112 l-5 -103 -43 -3 c-36 -3 -45
-8 -53 -30 -5 -14 -9 -44 -7 -66 3 -40 4 -41 45 -44 23 -2 46 -9 52 -15 6 -8
11 -122 13 -292 3 -266 4 -282 25 -325 35 -70 95 -103 199 -108 46 -2 95 -1
110 2 25 7 26 9 22 62 -5 63 -16 74 -73 74 -59 0 -107 28 -117 67 -5 18 -7
141 -6 275 l3 243 85 8 c47 4 91 9 98 12 9 3 12 23 10 67 l-3 63 -95 5 -95 5
-2 100 c-2 81 -6 102 -20 113 -20 14 -101 16 -123 2z"/>
<path d="M9083 2935 c-156 -34 -265 -145 -314 -316 -21 -74 -17 -224 8 -304
85 -270 386 -373 627 -214 51 34 136 144 136 177 0 26 -18 32 -95 32 -64 0
-64 0 -112 -51 -26 -28 -60 -57 -75 -65 -38 -20 -135 -17 -183 5 -73 33 -136
117 -139 185 l-1 31 310 5 c171 3 311 7 311 8 19 29 3 189 -27 265 -68 179
-260 283 -446 242z m152 -156 c52 -15 127 -90 150 -151 28 -75 29 -75 -221
-71 -120 2 -220 5 -222 8 -11 10 11 76 39 118 58 88 153 124 254 96z"/>
<path d="M10098 2924 c-29 -9 -67 -33 -101 -64 -30 -28 -58 -50 -61 -50 -3 0
-6 20 -6 44 0 61 -17 76 -90 76 -48 0 -61 -4 -70 -19 -6 -13 -10 -165 -10
-426 0 -261 4 -413 10 -426 8 -15 22 -19 61 -19 93 0 89 -13 89 260 0 265 7
320 51 380 74 101 255 120 331 34 44 -50 48 -80 48 -368 0 -236 2 -277 16
-290 19 -19 124 -22 142 -4 19 19 17 599 -3 665 -49 164 -236 260 -407 207z"/>
<path d="M6740 2909 c-18 -32 -3 -610 17 -672 21 -66 79 -136 144 -172 49 -27
62 -30 149 -30 107 0 151 17 213 80 19 19 39 35 45 35 6 0 12 -23 14 -52 l3
-53 54 -3 c30 -2 65 -1 78 3 l23 5 0 430 c0 414 -1 430 -19 440 -27 14 -114
13 -129 -2 -9 -9 -12 -87 -12 -288 0 -246 -2 -279 -19 -316 -61 -135 -269
-166 -353 -53 -45 60 -48 86 -48 379 0 315 8 290 -90 290 -50 0 -61 -3 -70
-21z"/>
<path d="M1097 2103 c-4 -3 -7 -173 -7 -378 0 -299 3 -382 15 -430 48 -188
189 -340 418 -451 121 -59 172 -65 248 -33 156 67 531 293 749 452 334 243
778 642 829 744 21 42 27 88 13 96 -4 3 -43 -19 -87 -48 -245 -161 -873 -546
-920 -564 -71 -27 -167 -28 -233 -3 -45 17 -150 82 -795 486 -120 75 -219 136
-221 136 -1 0 -6 -3 -9 -7z"/>
<path d="M5494 1676 c-159 -36 -238 -123 -251 -275 -7 -90 16 -165 69 -226 54
-62 103 -88 258 -140 73 -24 148 -56 167 -71 64 -49 80 -127 41 -204 -31 -60
-81 -85 -168 -84 -103 1 -163 41 -199 131 -10 25 -21 34 -48 39 -43 8 -104 -1
-115 -18 -12 -19 -1 -65 33 -135 33 -69 65 -98 154 -140 54 -25 71 -28 170
-28 99 0 116 3 167 27 84 39 135 84 166 147 23 49 27 68 27 146 -1 73 -5 98
-23 132 -48 91 -116 137 -295 200 -56 19 -118 43 -138 53 -145 74 -126 265 29
299 101 21 190 -16 242 -100 l30 -50 73 3 72 3 3 31 c4 45 -54 151 -105 190
-90 68 -238 97 -359 70z"/>
<path d="M11144 1638 c-4 -6 -15 -63 -26 -127 -42 -262 -76 -303 -302 -360
-65 -16 -123 -34 -128 -39 -15 -15 15 -27 127 -51 55 -11 125 -33 155 -49 89
-45 114 -97 151 -322 33 -196 46 -191 90 35 16 87 38 174 49 194 42 83 103
116 272 146 104 19 137 37 97 54 -13 6 -72 22 -132 35 -214 51 -244 86 -287
337 -12 67 -25 131 -31 141 -11 21 -25 23 -35 6z"/>
<path d="M9430 1427 c-31 -7 -76 -24 -100 -39 -63 -36 -146 -128 -175 -191
-67 -144 -50 -401 33 -508 41 -53 101 -103 162 -135 51 -27 63 -29 165 -29 99
0 115 3 165 27 31 15 74 43 97 62 52 45 105 128 101 158 -3 21 -8 23 -76 26
l-74 3 -52 -55 c-38 -39 -65 -58 -97 -66 -50 -14 -116 -7 -159 15 -69 36 -137
138 -128 196 l3 24 299 3 c201 1 304 6 313 13 30 25 5 196 -43 294 -37 74
-126 157 -198 184 -71 26 -167 34 -236 18z m198 -176 c50 -25 99 -84 113 -134
18 -67 15 -68 -225 -65 l-211 3 -3 27 c-5 39 34 108 85 151 58 50 163 58 241
18z"/>
<path d="M6529 1417 c-51 -19 -99 -50 -133 -86 -35 -36 -46 -32 -46 17 0 20
-4 43 -9 51 -12 19 -111 27 -140 12 l-21 -12 0 -627 c0 -475 3 -631 12 -640
16 -16 110 -15 131 0 14 11 16 47 20 267 2 154 7 256 13 258 6 2 31 -16 56
-40 72 -70 127 -92 228 -92 71 0 95 5 142 27 154 72 241 224 241 423 0 199
-87 352 -241 423 -69 31 -195 41 -253 19z m143 -159 c50 -15 123 -79 150 -132
33 -62 37 -202 9 -277 -40 -107 -123 -164 -236 -163 -104 1 -182 50 -231 144
-23 45 -32 202 -14 256 45 137 187 213 322 172z"/>
<path d="M7453 1416 c-65 -21 -124 -60 -175 -114 -57 -61 -74 -93 -99 -189
-34 -135 -19 -280 42 -394 39 -73 92 -121 179 -163 57 -27 75 -31 150 -31 102
0 155 21 228 89 27 25 52 46 56 46 3 0 6 -21 6 -47 0 -70 6 -74 86 -71 l69 3
5 125 c3 69 3 264 1 433 l-3 308 -77 -3 -76 -3 -3 -52 c-2 -29 -5 -53 -8 -53
-3 0 -27 19 -52 41 -26 23 -67 51 -91 61 -56 26 -181 33 -238 14z m248 -171
c97 -49 149 -143 149 -270 0 -164 -90 -277 -234 -292 -103 -11 -196 39 -243
129 -35 70 -44 200 -18 278 27 81 91 144 175 171 37 13 132 4 171 -16z"/>
<path d="M8479 1416 c-130 -50 -191 -113 -247 -254 -23 -58 -26 -82 -26 -182
0 -127 14 -185 66 -277 96 -172 336 -234 521 -135 63 34 139 116 162 175 22
58 15 68 -53 75 -68 6 -112 -11 -143 -57 -67 -96 -214 -107 -302 -23 -84 79
-111 267 -56 392 41 93 110 140 207 140 75 0 102 -18 185 -119 16 -19 26 -22
90 -19 87 4 90 11 51 98 -32 72 -93 131 -172 168 -47 21 -74 27 -152 29 -63 2
-107 -2 -131 -11z"/>
</g>
</svg>
