<?xml version="1.0" standalone="no"?>
<!DOCTYPE svg PUBLIC "-//W3C//DTD SVG 20010904//EN"
 "http://www.w3.org/TR/2001/REC-SVG-20010904/DTD/svg10.dtd">
<svg version="1.0" xmlns="http://www.w3.org/2000/svg"
 width="1536.000000pt" height="1024.000000pt" viewBox="0 0 1536.000000 1024.000000"
 preserveAspectRatio="xMidYMid meet">

<g transform="translate(0.000000,1024.000000) scale(0.100000,-0.100000)"
fill="#000000" stroke="none">
<path d="M4410 6387 c-190 -95 -498 -247 -685 -338 -346 -168 -403 -202 -392
-232 3 -9 230 -128 509 -267 277 -137 604 -302 727 -366 166 -85 230 -114 248
-110 12 4 125 60 250 125 126 65 307 159 403 208 741 381 790 409 790 435 0
20 -99 70 -670 338 -157 74 -394 189 -527 257 -166 85 -252 123 -275 123 -23
0 -138 -52 -378 -173z"/>
<path d="M6200 6544 c-142 -16 -355 -60 -485 -100 -81 -26 -185 -76 -185 -90
0 -7 25 -24 56 -39 55 -26 57 -26 97 -10 74 30 121 44 229 70 363 85 547 72
625 -44 38 -56 28 -161 -26 -284 -72 -165 -330 -462 -666 -766 -254 -231 -386
-334 -665 -522 -435 -294 -857 -498 -1288 -624 -63 -19 -115 -35 -116 -37 -8
-9 -35 -102 -31 -106 2 -2 37 3 77 13 209 50 553 180 848 321 129 62 186 84
215 84 177 0 467 96 635 210 125 85 199 217 200 354 1 50 2 52 63 105 34 29
118 106 187 169 204 188 209 192 214 192 3 0 6 -43 6 -95 l0 -96 -42 -56 -43
-56 -3 -266 c-2 -146 0 -276 3 -288 7 -31 63 -46 150 -41 39 3 77 8 83 12 9 5
12 86 12 290 l0 284 -34 49 -34 50 -3 151 c-3 138 -2 153 16 176 11 13 56 66
99 118 188 222 276 406 276 577 0 141 -92 246 -245 279 -59 13 -176 21 -225
16z"/>
<path d="M9750 6070 l0 -160 -36 40 c-47 52 -120 75 -211 67 -159 -15 -280
-149 -291 -321 -9 -154 90 -297 233 -338 95 -27 214 -2 278 59 l27 27 0 -47 0
-47 75 0 75 0 0 440 0 440 -75 0 -75 0 0 -160z m-77 -216 c50 -33 76 -91 77
-170 0 -85 -29 -139 -100 -181 -64 -39 -111 -42 -175 -12 -71 33 -109 105
-106 199 1 86 39 145 116 182 53 25 135 17 188 -18z"/>
<path d="M7425 6200 c-143 -55 -204 -191 -139 -309 33 -61 82 -97 167 -122
103 -31 211 -83 235 -114 26 -33 29 -83 7 -125 -42 -82 -198 -90 -265 -14 -16
19 -30 41 -30 49 0 23 -37 36 -93 33 l-52 -3 3 -35 c4 -59 67 -139 136 -175
54 -27 68 -30 150 -29 107 1 156 13 217 53 59 39 90 96 96 175 9 121 -50 183
-232 245 -181 62 -214 86 -215 157 -1 140 208 170 272 40 24 -49 34 -53 119
-48 l57 4 -10 36 c-26 94 -90 157 -192 187 -69 21 -170 18 -231 -5z"/>
<path d="M8070 6116 c0 -24 -3 -57 -6 -74 -6 -29 -10 -31 -53 -34 l-46 -3 -3
-62 -3 -63 45 0 44 0 4 -214 c3 -198 5 -217 24 -243 34 -47 79 -63 172 -63
l82 0 0 55 0 55 -35 0 c-46 0 -80 17 -94 47 -7 14 -11 91 -11 193 l0 170 70 0
71 0 -3 63 -3 62 -67 3 -68 3 0 74 0 75 -60 0 -60 0 0 -44z"/>
<path d="M11675 6085 l-7 -75 -44 0 -44 0 0 -65 0 -65 44 0 45 0 3 -218 c3
-188 5 -222 21 -245 27 -42 72 -59 170 -65 l88 -5 -3 59 -3 59 -48 5 c-80 10
-82 14 -85 225 l-3 185 70 0 71 0 0 65 0 65 -70 0 -70 0 0 75 0 75 -64 0 -64
0 -7 -75z"/>
<path d="M10275 6007 c-64 -22 -97 -42 -144 -88 -70 -70 -85 -115 -86 -244 0
-103 2 -113 28 -158 58 -99 128 -148 238 -167 155 -27 317 55 354 178 6 21 4
22 -64 22 -65 0 -71 -2 -90 -29 -32 -44 -83 -64 -155 -59 -44 3 -71 10 -94 27
-37 26 -72 88 -72 126 l0 25 250 0 250 0 0 63 c0 95 -22 156 -78 215 -26 28
-69 61 -96 72 -61 27 -184 36 -241 17z m181 -126 c46 -21 81 -64 90 -110 l7
-31 -182 0 c-199 0 -193 -2 -167 61 37 88 153 125 252 80z"/>
<path d="M11106 6006 c-21 -8 -53 -28 -70 -45 -31 -30 -47 -39 -45 -23 1 4 1
22 0 40 l-1 33 -67 -3 -68 -3 -3 -327 -2 -328 69 0 69 0 5 208 c2 120 9 223
16 244 7 23 26 49 48 65 31 24 46 28 98 27 69 -1 100 -17 132 -69 16 -26 19
-60 23 -250 l5 -220 68 -3 68 -3 -3 243 c-3 214 -5 247 -22 278 -26 49 -74 98
-121 122 -51 26 -147 33 -199 14z"/>
<path d="M8470 5802 c0 -300 22 -365 142 -425 101 -51 221 -33 296 43 l32 34
0 -52 0 -52 65 0 65 0 0 330 0 330 -69 0 -70 0 -3 -212 c-3 -200 -4 -216 -26
-256 -64 -120 -244 -99 -281 33 -6 23 -11 125 -11 238 l0 197 -70 0 -70 0 0
-208z"/>
<path d="M3876 5372 c-3 -5 -4 -123 -3 -263 l2 -254 33 -69 c41 -87 131 -178
227 -227 85 -45 203 -85 271 -94 46 -6 58 -3 130 33 366 184 757 439 1026 670
108 93 141 126 154 160 9 23 15 45 12 48 -3 3 -154 -71 -334 -163 -583 -297
-542 -278 -594 -277 -36 0 -75 14 -161 55 -173 84 -626 314 -696 354 -34 19
-64 32 -67 27z"/>
<path d="M3650 5133 c-47 -48 -113 -119 -145 -158 -33 -38 -66 -77 -74 -85
-41 -43 -154 -206 -198 -285 -121 -218 -150 -364 -94 -472 51 -100 192 -170
326 -161 47 3 50 5 53 32 8 63 -1 73 -76 79 -131 11 -194 55 -207 145 -13 94
39 235 149 402 65 99 204 273 301 378 l56 61 -3 76 -3 77 -85 -89z"/>
<path d="M7461 5100 c-82 -18 -164 -81 -191 -147 -21 -55 -9 -141 28 -195 41
-59 79 -82 199 -119 123 -39 176 -68 197 -113 20 -43 20 -69 0 -107 -18 -36
-82 -68 -135 -69 -43 0 -136 45 -144 69 -10 34 -53 63 -98 68 -71 8 -79 -1
-58 -65 23 -66 77 -123 145 -153 40 -18 70 -23 141 -24 104 0 167 19 231 71
53 42 74 88 74 158 0 134 -50 177 -326 280 -81 30 -102 49 -114 99 -23 105
107 174 220 117 30 -16 42 -29 51 -60 l12 -40 73 0 c40 0 75 4 78 8 9 16 -14
78 -43 120 -59 81 -216 128 -340 102z"/>
<path d="M8261 4897 c-18 -7 -51 -28 -72 -45 l-39 -33 0 35 0 36 -70 0 -70 0
0 -475 0 -476 68 3 67 3 3 198 2 198 43 -35 c62 -51 111 -68 192 -69 53 0 80
5 113 22 69 35 126 95 158 164 37 81 40 201 6 288 -26 65 -92 138 -154 170
-52 27 -193 36 -247 16z m182 -146 c63 -41 91 -96 92 -182 0 -120 -72 -198
-186 -201 -109 -3 -186 68 -196 180 -9 100 31 177 112 213 61 28 122 25 178
-10z"/>
<path d="M8986 4885 c-76 -31 -109 -63 -151 -149 -32 -63 -35 -76 -35 -157 0
-121 25 -185 100 -261 66 -66 110 -82 216 -81 80 1 157 29 196 70 l23 25 5
-44 5 -43 65 0 65 0 3 323 2 322 -70 0 -70 0 0 -46 0 -46 -41 41 c-73 73 -202
92 -313 46z m229 -124 c88 -39 125 -118 112 -234 -19 -154 -200 -224 -310
-119 -44 42 -67 94 -67 155 0 81 9 113 44 152 53 62 145 81 221 46z"/>
<path d="M9820 4893 c-65 -23 -151 -112 -180 -188 -50 -125 -23 -289 61 -375
63 -65 134 -93 238 -94 106 -1 172 20 235 75 44 39 86 96 86 118 0 7 -28 11
-84 11 -79 0 -86 -2 -103 -25 -20 -28 -81 -54 -126 -55 -46 0 -120 37 -145 74
-64 94 -53 225 24 298 38 35 74 48 135 48 59 0 96 -17 127 -59 22 -30 26 -31
92 -31 62 0 70 2 70 19 0 25 -68 115 -110 146 -71 53 -226 71 -320 38z"/>
<path d="M10567 4896 c-250 -67 -307 -419 -97 -599 111 -95 331 -87 438 16 29
27 72 94 72 112 0 3 -32 5 -71 5 -66 0 -72 -2 -96 -30 -30 -36 -117 -65 -166
-55 -60 13 -117 54 -138 98 -10 23 -19 52 -19 65 l0 22 255 0 255 0 0 78 c0
60 -5 88 -24 127 -31 67 -113 140 -179 160 -61 18 -164 18 -230 1z m198 -119
c34 -17 66 -51 81 -86 26 -63 32 -61 -170 -61 l-185 0 21 51 c22 53 66 94 115
109 31 10 108 3 138 -13z"/>
</g>
</svg>
