<?xml version="1.0" standalone="no"?>
<!DOCTYPE svg PUBLIC "-//W3C//DTD SVG 20010904//EN"
 "http://www.w3.org/TR/2001/REC-SVG-20010904/DTD/svg10.dtd">
<svg version="1.0" xmlns="http://www.w3.org/2000/svg"
 width="458.000000pt" height="389.000000pt" viewBox="0 0 458.000000 389.000000"
 preserveAspectRatio="xMidYMid meet">

<g transform="translate(0.000000,389.000000) scale(0.100000,-0.100000)"
fill="#080810" stroke="none">
<path d="M2070 3647 c-74 -40 -256 -139 -405 -219 -307 -165 -872 -469 -1018
-547 -179 -96 -242 -136 -245 -158 -3 -23 52 -58 443 -278 116 -65 242 -137
280 -160 39 -23 120 -71 180 -105 61 -35 279 -163 486 -286 207 -122 393 -228
412 -235 62 -22 -11 -62 932 511 193 116 463 277 600 357 138 80 265 156 283
170 36 27 41 52 15 75 -26 21 -170 101 -413 228 -118 62 -305 161 -415 220
-179 96 -681 362 -873 462 -40 21 -85 38 -100 38 -15 0 -88 -33 -162 -73z"/>
<path d="M3831 3589 c-124 -14 -297 -54 -453 -106 -193 -64 -200 -71 -105
-120 58 -29 59 -29 246 22 243 67 549 91 672 53 70 -22 141 -83 164 -140 22
-56 22 -160 0 -229 -47 -144 -170 -349 -337 -559 -373 -468 -1259 -1249 -1876
-1655 -444 -291 -902 -495 -1273 -566 -90 -17 -138 -20 -238 -17 -112 4 -132
7 -183 32 -117 56 -164 149 -161 321 4 275 158 611 501 1089 85 119 85 119 90
191 5 81 -6 99 -40 68 -42 -37 -282 -366 -364 -500 -160 -259 -270 -511 -310
-712 -12 -60 -15 -116 -12 -195 4 -98 8 -119 34 -176 58 -123 155 -206 289
-246 79 -24 275 -24 400 0 313 59 704 220 1142 469 l148 85 120 0 c352 0 715
140 918 353 137 142 168 229 168 466 l1 153 51 47 c28 27 92 86 142 132 49 46
145 140 212 210 96 98 125 123 132 112 5 -8 7 -71 4 -145 l-6 -131 -41 -58
-41 -58 -3 -387 c-1 -213 0 -397 3 -409 8 -33 62 -46 176 -41 77 3 103 8 116
21 16 16 18 51 21 387 2 230 -1 385 -7 408 -6 21 -29 62 -51 92 l-40 54 0 217
0 217 42 54 c324 409 447 664 418 868 -23 164 -128 273 -302 315 -81 20 -260
26 -367 14z"/>
<path d="M1097 2103 c-4 -3 -7 -173 -7 -378 0 -299 3 -382 15 -430 48 -188
189 -340 418 -451 121 -59 172 -65 248 -33 156 67 531 293 749 452 334 243
778 642 829 744 21 42 27 88 13 96 -4 3 -43 -19 -87 -48 -245 -161 -873 -546
-920 -564 -71 -27 -167 -28 -233 -3 -45 17 -150 82 -795 486 -120 75 -219 136
-221 136 -1 0 -6 -3 -9 -7z"/>
</g>
</svg>
